<svg width="40" height="40" viewBox="0 0 40 40" fill="none" xmlns="http://www.w3.org/2000/svg">
<g clip-path="url(#clip0_3_335)">
<path d="M0.5 20C0.5 9.23045 9.23045 0.5 20 0.5C30.7696 0.5 39.5 9.23045 39.5 20C39.5 30.7696 30.7696 39.5 20 39.5C9.23045 39.5 0.5 30.7696 0.5 20Z" fill="#0052B4" stroke="#0052B4"/>
<path fill-rule="evenodd" clip-rule="evenodd" d="M19.9998 9.16687C14.0168 9.16687 9.1665 14.0171 9.1665 20.0002C9.1665 25.9833 14.0168 30.8335 19.9998 30.8335C25.9829 30.8335 30.8332 25.9833 30.8332 20.0002C30.8332 14.0171 25.9829 9.16687 19.9998 9.16687ZM7.9165 20.0002C7.9165 13.3268 13.3264 7.91687 19.9998 7.91687C26.6733 7.91687 32.0832 13.3268 32.0832 20.0002C32.0832 26.6736 26.6733 32.0835 19.9998 32.0835C13.3264 32.0835 7.9165 26.6736 7.9165 20.0002Z" fill="white"/>
<path fill-rule="evenodd" clip-rule="evenodd" d="M7.91675 20C7.91675 19.6548 8.19657 19.375 8.54175 19.375H31.4584C31.8036 19.375 32.0834 19.6548 32.0834 20C32.0834 20.3452 31.8036 20.625 31.4584 20.625H8.54175C8.19657 20.625 7.91675 20.3452 7.91675 20Z" fill="white"/>
<path fill-rule="evenodd" clip-rule="evenodd" d="M16.0419 20C16.1252 23.8587 17.526 27.5655 20.0001 30.5101C22.4741 27.5655 23.8749 23.8587 23.9583 20C23.8749 16.1412 22.4741 12.4344 20.0001 9.48984C17.526 12.4344 16.1252 16.1412 16.0419 20ZM20.0001 8.54163L19.5386 8.12012C16.5704 11.3697 14.8836 15.5868 14.7919 19.9869C14.7917 19.9956 14.7917 20.0043 14.7919 20.013C14.8836 24.4132 16.5704 28.6303 19.5386 31.8798C19.657 32.0094 19.8245 32.0833 20.0001 32.0833C20.1757 32.0833 20.3431 32.0094 20.4615 31.8798C23.4298 28.6303 25.1166 24.4132 25.2083 20.013C25.2085 20.0043 25.2085 19.9956 25.2083 19.9869C25.1166 15.5868 23.4298 11.3697 20.4615 8.12012L20.0001 8.54163Z" fill="white"/>
</g>
<defs>
<clipPath id="clip0_3_335">
<rect width="40" height="40" fill="white"/>
</clipPath>
</defs>
</svg>
