<svg width="243" height="250" viewBox="0 0 243 250" fill="none" xmlns="http://www.w3.org/2000/svg">
<g filter="url(#filter0_b_3_314)">
<rect width="243" height="250" rx="24" fill="#000816" fill-opacity="0.62"/>
<g filter="url(#filter1_d_3_314)">
<rect x="77.5" y="37" width="88" height="88" rx="44" fill="white" shape-rendering="crispEdges"/>
<mask id="mask0_3_314" style="mask-type:alpha" maskUnits="userSpaceOnUse" x="103" y="59" width="37" height="44">
<path fill-rule="evenodd" clip-rule="evenodd" d="M121.5 101C130.337 101 137.5 93.836 137.5 85C137.5 72 121.5 61 121.5 61C121.5 61 105.5 72 105.5 85C105.5 93.837 112.663 101 121.5 101Z" fill="white" stroke="white" stroke-width="4" stroke-linecap="round" stroke-linejoin="round"/>
</mask>
<g mask="url(#mask0_3_314)">
<path d="M97.5 57H145.5V105H97.5V57Z" fill="#0052B4"/>
<path d="M121.5 77L117.5 85H125.5L121.5 93" stroke="white" stroke-width="4" stroke-linecap="round" stroke-linejoin="round"/>
</g>
</g>
<path d="M53.1148 174H51.0988C50.7361 174 50.5548 173.819 50.5548 173.456V153.968C50.5548 153.605 50.7361 153.424 51.0988 153.424H58.5868C60.1441 153.424 61.3601 153.872 62.2348 154.768C63.1308 155.643 63.5788 156.859 63.5788 158.416V161.104C63.5788 163.557 62.5654 165.104 60.5388 165.744V165.872L64.0908 173.36C64.3254 173.787 64.1868 174 63.6748 174H61.6908C61.1788 174 60.8481 173.819 60.6988 173.456L57.2748 166.096H54.0428C53.7868 166.096 53.6588 166.203 53.6588 166.416V173.456C53.6588 173.819 53.4774 174 53.1148 174ZM54.0108 163.536H58.0748C59.6534 163.536 60.4428 162.757 60.4428 161.2V158.512C60.4428 156.933 59.6534 156.144 58.0748 156.144H54.0108C53.7761 156.144 53.6588 156.251 53.6588 156.464V163.216C53.6588 163.429 53.7761 163.536 54.0108 163.536ZM79.1305 174H72.2185C70.6398 174 69.4132 173.563 68.5385 172.688C67.6852 171.813 67.2585 170.597 67.2585 169.04V162.64C67.2585 161.061 67.6852 159.845 68.5385 158.992C69.4132 158.117 70.6398 157.68 72.2185 157.68H74.8425C76.4212 157.68 77.6478 158.117 78.5225 158.992C79.3972 159.845 79.8345 161.061 79.8345 162.64V166.704C79.8345 167.088 79.6425 167.28 79.2585 167.28H70.6825C70.4478 167.28 70.3305 167.387 70.3305 167.6V168.976C70.3305 170.533 71.1092 171.312 72.6665 171.312H79.1305C79.5145 171.312 79.7065 171.504 79.7065 171.888V173.488C79.7065 173.829 79.5145 174 79.1305 174ZM70.6825 165.104H76.4105C76.6238 165.104 76.7305 164.997 76.7305 164.784V162.736C76.7305 161.925 76.5492 161.339 76.1865 160.976C75.8238 160.592 75.2372 160.4 74.4265 160.4H72.6665C71.8558 160.4 71.2692 160.592 70.9065 160.976C70.5438 161.339 70.3625 161.925 70.3625 162.736V164.784C70.3625 164.997 70.4692 165.104 70.6825 165.104ZM89.1838 174H83.2958C82.9331 174 82.7518 173.819 82.7518 173.456V171.888C82.7518 171.547 82.9331 171.376 83.2958 171.376H88.6718C90.0584 171.376 90.7517 170.896 90.7517 169.936V169.552C90.7517 168.699 90.2504 168.048 89.2478 167.6L85.7598 165.936C84.6718 165.424 83.8824 164.859 83.3918 164.24C82.9011 163.621 82.6558 162.811 82.6558 161.808C82.6558 159.056 84.1811 157.68 87.2318 157.68H92.5438C92.8851 157.68 93.0558 157.861 93.0558 158.224V159.792C93.0558 160.155 92.8851 160.336 92.5438 160.336H87.8718C87.2318 160.336 86.7411 160.453 86.3998 160.688C86.0584 160.901 85.8878 161.189 85.8878 161.552V161.904C85.8878 162.587 86.4318 163.184 87.5198 163.696L91.0398 165.488C92.1491 165.979 92.9064 166.565 93.3118 167.248C93.7384 167.909 93.9518 168.773 93.9518 169.84C93.9518 172.613 92.3624 174 89.1838 174ZM97.426 154.96V152.048C97.426 151.707 97.5967 151.536 97.938 151.536H100.018C100.359 151.536 100.53 151.707 100.53 152.048V154.96C100.53 155.323 100.359 155.504 100.018 155.504H97.938C97.5967 155.504 97.426 155.323 97.426 154.96ZM97.426 173.456V158.224C97.426 157.861 97.5967 157.68 97.938 157.68H99.986C100.349 157.68 100.53 157.861 100.53 158.224V173.456C100.53 173.669 100.487 173.819 100.402 173.904C100.338 173.968 100.21 174 100.018 174H97.97C97.6073 174 97.426 173.819 97.426 173.456ZM110.559 174H104.671C104.308 174 104.127 173.819 104.127 173.456V171.888C104.127 171.547 104.308 171.376 104.671 171.376H110.047C111.433 171.376 112.127 170.896 112.127 169.936V169.552C112.127 168.699 111.625 168.048 110.623 167.6L107.135 165.936C106.047 165.424 105.257 164.859 104.767 164.24C104.276 163.621 104.031 162.811 104.031 161.808C104.031 159.056 105.556 157.68 108.607 157.68H113.919C114.26 157.68 114.431 157.861 114.431 158.224V159.792C114.431 160.155 114.26 160.336 113.919 160.336H109.247C108.607 160.336 108.116 160.453 107.775 160.688C107.433 160.901 107.263 161.189 107.263 161.552V161.904C107.263 162.587 107.807 163.184 108.895 163.696L112.415 165.488C113.524 165.979 114.281 166.565 114.687 167.248C115.113 167.909 115.327 168.773 115.327 169.84C115.327 172.613 113.737 174 110.559 174ZM119.121 160.4H117.585C117.372 160.4 117.222 160.368 117.137 160.304C117.073 160.219 117.041 160.08 117.041 159.888V158.224C117.041 157.861 117.222 157.68 117.585 157.68H119.121C119.334 157.68 119.441 157.573 119.441 157.36V154.48C119.441 154.117 119.633 153.936 120.017 153.936H122.033C122.396 153.936 122.577 154.117 122.577 154.48V157.36C122.577 157.573 122.694 157.68 122.929 157.68H125.905C126.289 157.68 126.481 157.861 126.481 158.224V159.888C126.481 160.229 126.289 160.4 125.905 160.4H122.929C122.694 160.4 122.577 160.507 122.577 160.72V168.944C122.577 170.501 123.377 171.28 124.977 171.28H126.225C126.609 171.28 126.801 171.461 126.801 171.824V173.488C126.801 173.829 126.609 174 126.225 174H124.497C122.918 174 121.681 173.573 120.785 172.72C119.889 171.867 119.441 170.661 119.441 169.104V160.72C119.441 160.507 119.334 160.4 119.121 160.4ZM141.412 174H134.5C132.921 174 131.694 173.563 130.82 172.688C129.966 171.813 129.54 170.597 129.54 169.04V162.64C129.54 161.061 129.966 159.845 130.82 158.992C131.694 158.117 132.921 157.68 134.5 157.68H137.124C138.702 157.68 139.929 158.117 140.804 158.992C141.678 159.845 142.116 161.061 142.116 162.64V166.704C142.116 167.088 141.924 167.28 141.54 167.28H132.964C132.729 167.28 132.612 167.387 132.612 167.6V168.976C132.612 170.533 133.39 171.312 134.948 171.312H141.412C141.796 171.312 141.988 171.504 141.988 171.888V173.488C141.988 173.829 141.796 174 141.412 174ZM132.964 165.104H138.692C138.905 165.104 139.012 164.997 139.012 164.784V162.736C139.012 161.925 138.83 161.339 138.468 160.976C138.105 160.592 137.518 160.4 136.708 160.4H134.948C134.137 160.4 133.55 160.592 133.188 160.976C132.825 161.339 132.644 161.925 132.644 162.736V164.784C132.644 164.997 132.75 165.104 132.964 165.104ZM148.201 174H146.185C145.822 174 145.641 173.819 145.641 173.456V158.224C145.641 157.861 145.822 157.68 146.185 157.68H148.201C148.564 157.68 148.745 157.861 148.745 158.224V159.376H148.873C149.385 158.245 150.462 157.68 152.105 157.68H153.513C155.07 157.68 156.265 158.107 157.097 158.96C157.929 159.813 158.345 161.04 158.345 162.64V173.456C158.345 173.819 158.153 174 157.769 174H155.753C155.39 174 155.209 173.819 155.209 173.456V162.768C155.209 161.189 154.43 160.4 152.873 160.4H151.369C149.62 160.4 148.745 161.307 148.745 163.12V173.456C148.745 173.819 148.564 174 148.201 174ZM162.652 160.4H161.116C160.903 160.4 160.754 160.368 160.668 160.304C160.604 160.219 160.572 160.08 160.572 159.888V158.224C160.572 157.861 160.754 157.68 161.116 157.68H162.652C162.866 157.68 162.972 157.573 162.972 157.36V154.48C162.972 154.117 163.164 153.936 163.548 153.936H165.564C165.927 153.936 166.108 154.117 166.108 154.48V157.36C166.108 157.573 166.226 157.68 166.46 157.68H169.436C169.82 157.68 170.012 157.861 170.012 158.224V159.888C170.012 160.229 169.82 160.4 169.436 160.4H166.46C166.226 160.4 166.108 160.507 166.108 160.72V168.944C166.108 170.501 166.908 171.28 168.508 171.28H169.756C170.14 171.28 170.332 171.461 170.332 171.824V173.488C170.332 173.829 170.14 174 169.756 174H168.028C166.45 174 165.212 173.573 164.316 172.72C163.42 171.867 162.972 170.661 162.972 169.104V160.72C162.972 160.507 162.866 160.4 162.652 160.4ZM184.943 174H178.031C176.452 174 175.226 173.563 174.351 172.688C173.498 171.813 173.071 170.597 173.071 169.04V162.64C173.071 161.061 173.498 159.845 174.351 158.992C175.226 158.117 176.452 157.68 178.031 157.68H180.655C182.234 157.68 183.46 158.117 184.335 158.992C185.21 159.845 185.647 161.061 185.647 162.64V166.704C185.647 167.088 185.455 167.28 185.071 167.28H176.495C176.26 167.28 176.143 167.387 176.143 167.6V168.976C176.143 170.533 176.922 171.312 178.479 171.312H184.943C185.327 171.312 185.519 171.504 185.519 171.888V173.488C185.519 173.829 185.327 174 184.943 174ZM176.495 165.104H182.223C182.436 165.104 182.543 164.997 182.543 164.784V162.736C182.543 161.925 182.362 161.339 181.999 160.976C181.636 160.592 181.05 160.4 180.239 160.4H178.479C177.668 160.4 177.082 160.592 176.719 160.976C176.356 161.339 176.175 161.925 176.175 162.736V164.784C176.175 164.997 176.282 165.104 176.495 165.104ZM80.8103 206H79.5623C77.9836 206 76.7569 205.563 75.8823 204.688C75.0289 203.813 74.6023 202.597 74.6023 201.04V194.64C74.6023 193.061 75.0289 191.845 75.8823 190.992C76.7569 190.117 77.9836 189.68 79.5623 189.68H86.7303C87.1143 189.68 87.3063 189.861 87.3063 190.224V205.456C87.3063 205.819 87.1143 206 86.7303 206H84.7143C84.3516 206 84.1703 205.819 84.1703 205.456V204.304H84.0423C83.5303 205.435 82.4529 206 80.8103 206ZM84.1703 200.56V192.72C84.1703 192.507 84.0529 192.4 83.8183 192.4H80.0103C78.4743 192.4 77.7063 193.189 77.7063 194.768V200.912C77.7063 202.491 78.4743 203.28 80.0103 203.28H81.5463C83.2956 203.28 84.1703 202.373 84.1703 200.56ZM94.0173 206H92.0013C91.6386 206 91.4573 205.819 91.4573 205.456V184.048C91.4573 183.685 91.6386 183.504 92.0013 183.504H94.0173C94.3799 183.504 94.5613 183.685 94.5613 184.048V205.456C94.5613 205.819 94.3799 206 94.0173 206ZM112.279 206H111.031C109.452 206 108.226 205.563 107.351 204.688C106.498 203.813 106.071 202.597 106.071 201.04V194.64C106.071 193.061 106.498 191.845 107.351 190.992C108.226 190.117 109.452 189.68 111.031 189.68H118.199C118.583 189.68 118.775 189.861 118.775 190.224V205.456C118.775 205.819 118.583 206 118.199 206H116.183C115.82 206 115.639 205.819 115.639 205.456V204.304H115.511C114.999 205.435 113.922 206 112.279 206ZM115.639 200.56V192.72C115.639 192.507 115.522 192.4 115.287 192.4H111.479C109.943 192.4 109.175 193.189 109.175 194.768V200.912C109.175 202.491 109.943 203.28 111.479 203.28H113.015C114.764 203.28 115.639 202.373 115.639 200.56ZM128.718 205.2H127.278C125.742 205.2 124.558 204.773 123.726 203.92C122.915 203.045 122.51 201.819 122.51 200.24V194.64C122.51 193.061 122.947 191.845 123.822 190.992C124.697 190.117 125.913 189.68 127.47 189.68H134.638C135.022 189.68 135.214 189.861 135.214 190.224V206.064C135.214 207.621 134.766 208.827 133.87 209.68C132.995 210.555 131.779 210.992 130.222 210.992H124.206C123.843 210.992 123.662 210.821 123.662 210.48V208.816C123.662 208.453 123.843 208.272 124.206 208.272H129.742C131.299 208.272 132.078 207.483 132.078 205.904V203.472H131.95C131.417 204.624 130.339 205.2 128.718 205.2ZM132.078 199.76V192.72C132.078 192.507 131.961 192.4 131.726 192.4H127.918C126.403 192.4 125.646 193.189 125.646 194.768V200.08C125.646 201.659 126.403 202.448 127.918 202.448H129.454C131.203 202.448 132.078 201.552 132.078 199.76ZM145.252 206H143.812C142.276 206 141.092 205.573 140.26 204.72C139.449 203.845 139.044 202.619 139.044 201.04V190.224C139.044 189.861 139.225 189.68 139.588 189.68H141.604C141.966 189.68 142.148 189.861 142.148 190.224V200.912C142.148 202.491 142.916 203.28 144.452 203.28H145.988C147.737 203.28 148.612 202.373 148.612 200.56V190.224C148.612 189.861 148.793 189.68 149.156 189.68H151.172C151.556 189.68 151.748 189.861 151.748 190.224V205.456C151.748 205.819 151.556 206 151.172 206H149.156C148.793 206 148.612 205.819 148.612 205.456V204.304H148.484C147.972 205.435 146.894 206 145.252 206ZM161.623 206H160.375C158.796 206 157.569 205.563 156.695 204.688C155.841 203.813 155.415 202.597 155.415 201.04V194.64C155.415 193.061 155.841 191.845 156.695 190.992C157.569 190.117 158.796 189.68 160.375 189.68H167.543C167.927 189.68 168.119 189.861 168.119 190.224V205.456C168.119 205.819 167.927 206 167.543 206H165.527C165.164 206 164.983 205.819 164.983 205.456V204.304H164.855C164.343 205.435 163.265 206 161.623 206ZM164.983 200.56V192.72C164.983 192.507 164.865 192.4 164.631 192.4H160.823C159.287 192.4 158.519 193.189 158.519 194.768V200.912C158.519 202.491 159.287 203.28 160.823 203.28H162.359C164.108 203.28 164.983 202.373 164.983 200.56Z" fill="white"/>
</g>
<defs>
<filter id="filter0_b_3_314" x="-54" y="-54" width="351" height="358" filterUnits="userSpaceOnUse" color-interpolation-filters="sRGB">
<feFlood flood-opacity="0" result="BackgroundImageFix"/>
<feGaussianBlur in="BackgroundImageFix" stdDeviation="27"/>
<feComposite in2="SourceAlpha" operator="in" result="effect1_backgroundBlur_3_314"/>
<feBlend mode="normal" in="SourceGraphic" in2="effect1_backgroundBlur_3_314" result="shape"/>
</filter>
<filter id="filter1_d_3_314" x="21.5" y="0" width="200" height="200" filterUnits="userSpaceOnUse" color-interpolation-filters="sRGB">
<feFlood flood-opacity="0" result="BackgroundImageFix"/>
<feColorMatrix in="SourceAlpha" type="matrix" values="0 0 0 0 0 0 0 0 0 0 0 0 0 0 0 0 0 0 127 0" result="hardAlpha"/>
<feOffset dy="19"/>
<feGaussianBlur stdDeviation="28"/>
<feComposite in2="hardAlpha" operator="out"/>
<feColorMatrix type="matrix" values="0 0 0 0 0 0 0 0 0 0.321569 0 0 0 0 0.705882 0 0 0 0.16 0"/>
<feBlend mode="normal" in2="BackgroundImageFix" result="effect1_dropShadow_3_314"/>
<feBlend mode="normal" in="SourceGraphic" in2="effect1_dropShadow_3_314" result="shape"/>
</filter>
</defs>
</svg>
